<svg width="319" height="296" viewBox="0 0 319 296" fill="none" xmlns="http://www.w3.org/2000/svg">
<rect width="319" height="296" fill="url(#paint0_radial_42_26)"/>
<circle cx="158.005" cy="154" r="124.5" stroke="white" stroke-opacity="0.1"/>
<circle cx="158.005" cy="154" r="99.5" stroke="white" stroke-opacity="0.1"/>
<circle cx="158.005" cy="154" r="74.5" stroke="white" stroke-opacity="0.1"/>
<circle cx="158.005" cy="154" r="49.5" stroke="white" stroke-opacity="0.1"/>
<circle cx="158.005" cy="154" r="24.5" stroke="white" stroke-opacity="0.1"/>
<line x1="158.505" y1="29" x2="158.505" y2="279" stroke="white" stroke-opacity="0.1"/>
<line x1="69.6515" y1="242.423" x2="246.428" y2="65.6465" stroke="white" stroke-opacity="0.1"/>
<line x1="246.428" y1="243.137" x2="69.6515" y2="66.3607" stroke="white" stroke-opacity="0.1"/>
<line x1="283" y1="154.505" x2="33" y2="154.505" stroke="white" stroke-opacity="0.1"/>
<path d="M118.717 148.268L74 195.349L80.7925 203L118.717 160.627L130.604 171.809L169.66 131.201L184.377 148.268L169.66 162.981L166.83 158.861H159.472V191.23L171.925 178.282L194.566 199.469H206.453L178.151 168.866L243.245 99.4211L248.34 105.306L254 80L226.83 86.4737L235.887 91.7703L191.736 140.617L169.66 117.665L130.604 158.861L118.717 148.268Z" fill="url(#paint1_linear_42_26)"/>
<path d="M98.575 166.952C98.575 170.621 97.2097 173.587 94.479 175.848C91.7483 178.067 88.1217 179.176 83.599 179.176C82.447 179.176 80.8257 179.027 78.735 178.728V195.112C78.735 197.459 78.8843 198.845 79.183 199.272C79.5243 199.656 80.719 199.891 82.767 199.976C83.919 199.933 84.495 200.125 84.495 200.552C84.495 200.936 84.1537 201.128 83.471 201.128H82.511C82.2977 201.128 81.295 201.107 79.503 201.064C77.7537 201.021 75.9403 201 74.063 201L66.575 201.064C65.167 201.064 64.3563 201.021 64.143 200.936C63.9297 200.851 63.823 200.723 63.823 200.552C63.823 200.211 64.1643 200.04 64.847 200.04C66.9377 199.997 68.175 199.805 68.559 199.464C68.9857 199.123 69.199 198.141 69.199 196.52V163.624C69.199 160.893 69.0923 159.251 68.879 158.696C68.6657 158.141 67.5777 157.864 65.615 157.864C64.463 157.864 63.887 157.693 63.887 157.352C63.887 156.968 64.4203 156.776 65.487 156.776L83.791 156.712C88.271 156.712 91.6203 157.395 93.839 158.76C96.9963 160.723 98.575 163.453 98.575 166.952ZM88.271 167.336C88.271 161.021 86.287 157.864 82.319 157.864C79.9297 157.864 78.735 158.909 78.735 161V177.768C80.4843 177.768 81.679 177.704 82.319 177.576C83.5563 177.363 84.623 176.872 85.519 176.104C87.3537 174.483 88.271 171.56 88.271 167.336ZM126.828 193.192C126.828 194.131 126.273 195.368 125.164 196.904C122.775 200.189 119.66 201.832 115.82 201.832C111.511 201.832 107.969 200.467 105.196 197.736C102.423 195.005 101.036 191.507 101.036 187.24C101.036 183.059 102.38 179.581 105.068 176.808C107.756 173.992 111.105 172.584 115.116 172.584C117.847 172.584 120.172 173.181 122.092 174.376C124.225 175.699 125.612 177.597 126.252 180.072C126.423 180.84 126.551 181.757 126.636 182.824C125.655 182.909 121.708 182.973 114.796 183.016C113.729 183.016 112.385 183.059 110.764 183.144C110.636 184.68 110.572 185.981 110.572 187.048C110.572 192.04 111.617 195.581 113.708 197.672C114.945 198.909 116.46 199.528 118.252 199.528C119.745 199.528 121.175 199.016 122.54 197.992C123.948 196.968 125.015 195.645 125.74 194.024C126.081 193.213 126.359 192.808 126.572 192.808C126.743 192.808 126.828 192.936 126.828 193.192ZM118.764 182.056C118.807 178.771 118.572 176.488 118.06 175.208C117.548 173.928 116.652 173.288 115.372 173.288C112.769 173.288 111.276 176.211 110.892 182.056C111.788 182.013 113.665 181.992 116.524 181.992C117.377 181.992 118.124 182.013 118.764 182.056ZM155.016 193.192C155.016 194.131 154.461 195.368 153.352 196.904C150.962 200.189 147.848 201.832 144.008 201.832C139.698 201.832 136.157 200.467 133.384 197.736C130.61 195.005 129.224 191.507 129.224 187.24C129.224 183.059 130.568 179.581 133.256 176.808C135.944 173.992 139.293 172.584 143.304 172.584C146.034 172.584 148.36 173.181 150.28 174.376C152.413 175.699 153.8 177.597 154.44 180.072C154.61 180.84 154.738 181.757 154.824 182.824C153.842 182.909 149.896 182.973 142.984 183.016C141.917 183.016 140.573 183.059 138.952 183.144C138.824 184.68 138.76 185.981 138.76 187.048C138.76 192.04 139.805 195.581 141.896 197.672C143.133 198.909 144.648 199.528 146.44 199.528C147.933 199.528 149.362 199.016 150.728 197.992C152.136 196.968 153.202 195.645 153.928 194.024C154.269 193.213 154.546 192.808 154.76 192.808C154.93 192.808 155.016 192.936 155.016 193.192ZM146.952 182.056C146.994 178.771 146.76 176.488 146.248 175.208C145.736 173.928 144.84 173.288 143.56 173.288C140.957 173.288 139.464 176.211 139.08 182.056C139.976 182.013 141.853 181.992 144.712 181.992C145.565 181.992 146.312 182.013 146.952 182.056ZM241.049 189.48C241.049 192.125 240.238 194.408 238.617 196.328C236.995 198.205 234.755 199.464 231.897 200.104C229.635 200.616 227.502 200.915 225.497 201C223.491 201.085 217.603 201.128 207.833 201.128C206.467 201.128 205.657 201.107 205.401 201.064C205.145 201.021 205.017 200.872 205.017 200.616C205.017 200.232 205.699 200.04 207.065 200.04C208.473 200.04 209.347 199.848 209.689 199.464C210.03 199.037 210.201 198.035 210.201 196.456L210.137 159.848C210.137 158.611 209.155 157.971 207.193 157.928C205.699 157.885 204.953 157.693 204.953 157.352C204.953 156.968 205.422 156.776 206.361 156.776C207.257 156.861 208.131 156.904 208.985 156.904H224.345C234.201 156.904 239.129 160.275 239.129 167.016C239.129 172.605 235.459 176.061 228.121 177.384L227.993 177.64C232.302 178.536 235.289 179.667 236.953 181.032C239.683 183.293 241.049 186.109 241.049 189.48ZM229.657 167.272C229.657 161.085 227.737 157.992 223.897 157.992C222.531 157.992 221.614 158.056 221.145 158.184C220.206 158.483 219.737 159.144 219.737 160.168V177.064C223.534 177.064 226.137 176.403 227.545 175.08C228.953 173.757 229.657 171.155 229.657 167.272ZM230.809 189.16C230.809 183.144 229.081 179.645 225.625 178.664C224.259 178.28 222.297 178.088 219.737 178.088L219.865 181.8C219.865 182.867 219.822 184.381 219.737 186.344C219.694 187.325 219.673 189.16 219.673 191.848C219.673 196.456 219.801 198.909 220.057 199.208C220.398 199.677 221.358 199.912 222.937 199.912C228.185 199.912 230.809 196.328 230.809 189.16ZM264.614 200.552C264.614 200.893 264.337 201.064 263.782 201.064C263.483 201.064 263.206 201.043 262.95 201C260.39 200.872 258.193 200.808 256.358 200.808C254.438 200.808 251.622 200.872 247.91 201C246.673 201.043 245.755 201.064 245.158 201.064C244.518 201.064 244.198 200.872 244.198 200.488C244.198 200.275 244.305 200.147 244.518 200.104C244.774 200.061 245.606 200.019 247.014 199.976C248.337 199.72 249.105 199.336 249.318 198.824C249.531 198.269 249.638 196.541 249.638 193.64V162.856C249.638 162.045 249.638 161.256 249.638 160.488C249.595 159.72 249.574 159.357 249.574 159.4C249.574 158.333 248.507 157.8 246.374 157.8C245.179 157.8 244.582 157.651 244.582 157.352C244.582 157.053 244.667 156.883 244.838 156.84C245.009 156.797 245.563 156.776 246.502 156.776C246.075 156.776 246.843 156.797 248.806 156.84C250.769 156.883 252.454 156.904 253.862 156.904H257.126C257.809 156.904 258.769 156.883 260.006 156.84C261.286 156.755 262.182 156.712 262.694 156.712H263.334C263.889 156.712 264.166 156.883 264.166 157.224C264.166 157.48 264.059 157.651 263.846 157.736C263.675 157.779 263.035 157.821 261.926 157.864C260.603 157.949 259.793 158.227 259.494 158.696L259.302 159.912V196.072C259.302 197.907 259.494 198.995 259.878 199.336C260.305 199.677 261.691 199.912 264.038 200.04C264.422 200.083 264.614 200.253 264.614 200.552Z" fill="url(#paint2_linear_42_26)"/>
<defs>
<radialGradient id="paint0_radial_42_26" cx="0" cy="0" r="1" gradientUnits="userSpaceOnUse" gradientTransform="translate(159.5 148) rotate(90) scale(148 159.5)">
<stop stop-color="#010863"/>
<stop offset="1" stop-color="#020202"/>
</radialGradient>
<linearGradient id="paint1_linear_42_26" x1="175" y1="69.5" x2="92.0966" y2="183.806" gradientUnits="userSpaceOnUse">
<stop offset="0.0448908" stop-color="#9825E8"/>
<stop offset="0.454652" stop-color="white"/>
<stop offset="1" stop-color="#0C1831"/>
</linearGradient>
<linearGradient id="paint2_linear_42_26" x1="155" y1="142" x2="155" y2="218" gradientUnits="userSpaceOnUse">
<stop stop-color="#7400B8"/>
<stop offset="1" stop-color="white"/>
</linearGradient>
</defs>
</svg>
